<svg width="27" height="26" viewBox="0 0 27 26" fill="none" xmlns="http://www.w3.org/2000/svg">
<path d="M18 18.5L26 25M18 18.5L18.7195 17.0609C19.5616 15.3768 20 13.5197 20 11.6368V11.2391C20 10.0886 19.7989 8.94688 19.4057 7.86562V7.86562C18.506 5.39163 16.6555 3.37946 14.2653 2.2763L13.7885 2.05624C12.2928 1.3659 10.6336 1.1083 8.99897 1.31263L8.93405 1.32074C7.98493 1.43938 7.06289 1.71855 6.20737 2.14632V2.14632C4.45707 3.02146 3.06542 4.47781 2.27065 6.26604L2.02355 6.82202C1.67592 7.60419 1.42879 8.42725 1.28808 9.27155L1.2744 9.35358C1.09255 10.4447 1.07961 11.5573 1.23605 12.6524L1.41035 13.8724C1.46999 14.29 1.56709 14.7013 1.70047 15.1014V15.1014C2.21729 16.6519 3.25812 17.9738 4.64403 18.84L5.77675 19.548C6.25796 19.8487 6.76501 20.106 7.29189 20.3168V20.3168C8.42026 20.7681 9.6244 21 10.8397 21H11V21C12.3153 21 13.6125 20.6938 14.7889 20.1056L18 18.5Z" stroke="#8C9197" stroke-width="2"/>
</svg>
